<?xml version="1.0" encoding="utf-8"?>
<!-- Generator: Adobe Illustrator 22.1.0, SVG Export Plug-In . SVG Version: 6.00 Build 0)  -->
<svg version="1.1" xmlns="http://www.w3.org/2000/svg" xmlns:xlink="http://www.w3.org/1999/xlink" x="0px" y="0px"
	 viewBox="0 0 720 720" style="enable-background:new 0 0 720 720;" xml:space="preserve">
<style type="text/css">
	.st0{display:none;}
	.st1{display:inline;fill:#FFFFFF;}
	.st2{display:inline;fill:#002333;}
	.st3{display:inline;}
	.st4{display:inline;fill:#CCCCCC;}
	.st5{fill:#3399FF;}
	.st6{fill:#33FF99;}
	.st7{fill:#002333;}
	.st8{fill:url(#SVGID_1_);}
	.st9{fill:url(#SVGID_2_);}
	.st10{fill:url(#SVGID_3_);}
	.st11{fill:url(#SVGID_4_);}
	.st12{fill:url(#SVGID_5_);}
	.st13{fill:url(#SVGID_6_);}
	.st14{fill:url(#SVGID_7_);}
	.st15{fill:url(#SVGID_8_);}
	.st16{fill:url(#SVGID_9_);}
	.st17{fill:url(#SVGID_10_);}
	.st18{fill:url(#SVGID_11_);}
	.st19{fill:url(#SVGID_12_);}
	.st20{fill:url(#SVGID_13_);}
	.st21{fill:url(#SVGID_14_);}
	.st22{fill:url(#SVGID_15_);}
	.st23{fill:url(#SVGID_16_);}
	.st24{fill:url(#SVGID_17_);}
	.st25{fill:url(#SVGID_18_);}
	.st26{fill:url(#SVGID_19_);}
	.st27{fill:url(#SVGID_20_);}
	.st28{fill:url(#SVGID_21_);}
	.st29{fill:url(#SVGID_22_);}
	.st30{fill:url(#SVGID_23_);}
	.st31{fill:url(#SVGID_24_);}
	.st32{fill:url(#SVGID_25_);}
	.st33{fill:url(#SVGID_26_);}
	.st34{fill:url(#SVGID_27_);}
	.st35{fill:url(#SVGID_28_);}
	.st36{fill:url(#SVGID_29_);}
	.st37{fill:url(#SVGID_30_);}
	.st38{fill:url(#SVGID_31_);}
	.st39{fill:url(#SVGID_32_);}
	.st40{fill:url(#SVGID_33_);}
	.st41{fill:url(#SVGID_34_);}
	.st42{fill:url(#SVGID_35_);}
	.st43{fill:url(#SVGID_36_);}
	.st44{fill:url(#SVGID_37_);}
	.st45{fill:url(#SVGID_38_);}
	.st46{fill:url(#SVGID_39_);}
	.st47{fill:url(#SVGID_40_);}
	.st48{fill:url(#SVGID_41_);}
	.st49{fill:url(#SVGID_42_);}
	.st50{fill:url(#SVGID_43_);}
	.st51{fill:url(#SVGID_44_);}
	.st52{fill:url(#SVGID_45_);}
	.st53{fill:url(#SVGID_46_);}
	.st54{fill:url(#SVGID_47_);}
	.st55{fill:url(#SVGID_48_);}
	.st56{fill:url(#SVGID_49_);}
	.st57{fill:url(#SVGID_50_);}
	.st58{fill:url(#SVGID_51_);}
	.st59{fill:url(#SVGID_52_);}
	.st60{fill:url(#SVGID_53_);}
	.st61{fill:url(#SVGID_54_);}
	.st62{fill:url(#SVGID_55_);}
	.st63{fill:url(#SVGID_56_);}
	.st64{fill:url(#SVGID_57_);}
	.st65{fill:url(#SVGID_58_);}
	.st66{fill:url(#SVGID_59_);}
	.st67{fill:url(#SVGID_60_);}
	.st68{fill:url(#SVGID_61_);}
	.st69{fill:url(#SVGID_62_);}
	.st70{fill:url(#SVGID_63_);}
	.st71{fill:url(#SVGID_64_);}
	.st72{fill:url(#SVGID_65_);}
	.st73{fill:url(#SVGID_66_);}
	.st74{fill:url(#SVGID_67_);}
	.st75{fill:url(#SVGID_68_);}
	.st76{fill:url(#SVGID_69_);}
	.st77{fill:url(#SVGID_70_);}
	.st78{fill:url(#SVGID_71_);}
	.st79{fill:url(#SVGID_72_);}
	.st80{fill:url(#SVGID_73_);}
	.st81{fill:url(#SVGID_74_);}
	.st82{fill:url(#SVGID_75_);}
	.st83{fill:url(#SVGID_76_);}
	.st84{fill:url(#SVGID_77_);}
	.st85{fill:url(#SVGID_78_);}
	.st86{fill:url(#SVGID_79_);}
	.st87{fill:url(#SVGID_80_);}
	.st88{fill:url(#SVGID_81_);}
	.st89{fill:url(#SVGID_82_);}
	.st90{fill:url(#SVGID_83_);}
	.st91{fill:url(#SVGID_84_);}
	.st92{fill:url(#SVGID_85_);}
	.st93{fill:url(#SVGID_86_);}
	.st94{fill:url(#SVGID_87_);}
	.st95{fill:url(#SVGID_88_);}
	.st96{fill:url(#SVGID_89_);}
	.st97{fill:url(#SVGID_90_);}
	.st98{fill:url(#SVGID_91_);}
	.st99{fill:url(#SVGID_92_);}
	.st100{fill:url(#SVGID_93_);}
	.st101{fill:url(#SVGID_94_);}
	.st102{fill:url(#SVGID_95_);}
	.st103{fill:url(#SVGID_96_);}
	.st104{fill:url(#SVGID_97_);}
	.st105{fill:url(#SVGID_98_);}
	.st106{fill:url(#SVGID_99_);}
	.st107{fill:url(#SVGID_100_);}
	.st108{fill:url(#SVGID_101_);}
	.st109{fill:url(#SVGID_102_);}
	.st110{fill:url(#SVGID_103_);}
	.st111{fill:url(#SVGID_104_);}
	.st112{fill:url(#SVGID_105_);}
	.st113{fill:url(#SVGID_106_);}
	.st114{fill:url(#SVGID_107_);}
	.st115{fill:url(#SVGID_108_);}
	.st116{fill:url(#SVGID_109_);}
	.st117{fill:url(#SVGID_110_);}
	.st118{fill:url(#SVGID_111_);}
	.st119{fill:url(#SVGID_112_);}
	.st120{fill:url(#SVGID_113_);}
	.st121{fill:url(#SVGID_114_);}
	.st122{fill:url(#SVGID_115_);}
	.st123{fill:url(#SVGID_116_);}
	.st124{fill:url(#SVGID_117_);}
	.st125{fill:url(#SVGID_118_);}
	.st126{fill:url(#SVGID_119_);}
	.st127{fill:url(#SVGID_120_);}
	.st128{fill:url(#SVGID_121_);}
	.st129{fill:url(#SVGID_122_);}
	.st130{fill:url(#SVGID_123_);}
	.st131{fill:url(#SVGID_124_);}
	.st132{fill:url(#SVGID_125_);}
	.st133{fill:url(#SVGID_126_);}
	.st134{fill:url(#SVGID_127_);}
	.st135{fill:url(#SVGID_128_);}
	.st136{fill:url(#SVGID_129_);}
	.st137{fill:url(#SVGID_130_);}
	.st138{fill:url(#SVGID_131_);}
	.st139{fill:url(#SVGID_132_);}
	.st140{fill:url(#SVGID_133_);}
	.st141{fill:url(#SVGID_134_);}
	.st142{fill:url(#SVGID_135_);}
	.st143{fill:url(#SVGID_136_);}
	.st144{fill:url(#SVGID_137_);}
	.st145{fill:url(#SVGID_138_);}
	.st146{fill:url(#SVGID_139_);}
	.st147{fill:url(#SVGID_140_);}
	.st148{fill:url(#SVGID_141_);}
	.st149{fill:url(#SVGID_142_);}
	.st150{fill:url(#SVGID_143_);}
	.st151{fill:url(#SVGID_144_);}
	.st152{fill:url(#SVGID_145_);}
	.st153{fill:url(#SVGID_146_);}
	.st154{fill:url(#SVGID_147_);}
	.st155{fill:url(#SVGID_148_);}
	.st156{fill:url(#SVGID_149_);}
	.st157{fill:url(#SVGID_150_);}
	.st158{fill:url(#SVGID_151_);}
	.st159{fill:url(#SVGID_152_);}
	.st160{fill:url(#SVGID_153_);}
	.st161{fill:url(#SVGID_154_);}
	.st162{fill:url(#SVGID_155_);}
	.st163{fill:url(#SVGID_156_);}
	.st164{fill:url(#SVGID_157_);}
	.st165{fill:url(#SVGID_158_);}
	.st166{fill:url(#SVGID_159_);}
	.st167{fill:url(#SVGID_160_);}
	.st168{fill:url(#SVGID_161_);}
	.st169{fill:url(#SVGID_162_);}
	.st170{fill:url(#SVGID_163_);}
	.st171{fill:url(#SVGID_164_);}
	.st172{fill:url(#SVGID_165_);}
	.st173{fill:url(#SVGID_166_);}
	.st174{fill:url(#SVGID_167_);}
	.st175{fill:url(#SVGID_168_);}
	.st176{fill:url(#SVGID_169_);}
	.st177{fill:url(#SVGID_170_);}
	.st178{fill:url(#SVGID_171_);}
	.st179{fill:#333333;}
	.st180{fill:#FFFFFF;}
	.st181{fill:url(#SVGID_172_);}
	.st182{fill:url(#SVGID_173_);}
	.st183{fill:url(#SVGID_174_);}
	.st184{fill:url(#SVGID_175_);}
	.st185{fill:url(#SVGID_176_);}
	.st186{fill:url(#SVGID_177_);}
	.st187{fill:url(#SVGID_178_);}
	.st188{fill:url(#SVGID_179_);}
	.st189{fill:url(#SVGID_180_);}
	.st190{fill:url(#SVGID_181_);}
	.st191{fill:url(#SVGID_182_);}
	.st192{fill:url(#SVGID_183_);}
	.st193{fill:url(#SVGID_184_);}
	.st194{fill:url(#SVGID_185_);}
	.st195{fill:url(#SVGID_186_);}
	.st196{fill:url(#SVGID_187_);}
	.st197{fill:url(#SVGID_188_);}
	.st198{fill:url(#SVGID_189_);}
	.st199{fill:url(#SVGID_190_);}
	.st200{fill:url(#SVGID_191_);}
	.st201{fill:url(#SVGID_192_);}
	.st202{fill:url(#SVGID_193_);}
	.st203{fill:url(#SVGID_194_);}
	.st204{fill:url(#SVGID_195_);}
	.st205{fill:url(#SVGID_196_);}
	.st206{fill:url(#SVGID_197_);}
	.st207{fill:url(#SVGID_198_);}
	.st208{fill:url(#SVGID_199_);}
	.st209{fill:url(#SVGID_200_);}
	.st210{fill:url(#SVGID_201_);}
	.st211{fill:url(#SVGID_202_);}
	.st212{fill:url(#SVGID_203_);}
	.st213{fill:url(#SVGID_204_);}
	.st214{fill:url(#SVGID_205_);}
	.st215{fill:url(#SVGID_206_);}
	.st216{fill:url(#SVGID_207_);}
	.st217{fill:url(#SVGID_208_);}
	.st218{fill:url(#SVGID_209_);}
	.st219{fill:url(#SVGID_210_);}
	.st220{fill:url(#SVGID_211_);}
	.st221{fill:url(#SVGID_212_);}
	.st222{fill:url(#SVGID_213_);}
	.st223{fill:url(#SVGID_214_);}
	.st224{fill:url(#SVGID_215_);}
	.st225{fill:url(#SVGID_216_);}
	.st226{fill:url(#SVGID_217_);}
	.st227{fill:url(#SVGID_218_);}
	.st228{fill:url(#SVGID_219_);}
	.st229{fill:url(#SVGID_220_);}
	.st230{fill:url(#SVGID_221_);}
	.st231{fill:url(#SVGID_222_);}
	.st232{fill:url(#SVGID_223_);}
	.st233{fill:url(#SVGID_224_);}
	.st234{fill:url(#SVGID_225_);}
	.st235{fill:url(#SVGID_226_);}
	.st236{fill:url(#SVGID_227_);}
	.st237{fill:url(#SVGID_228_);}
	.st238{fill:url(#SVGID_229_);}
	.st239{fill:url(#SVGID_230_);}
	.st240{fill:url(#SVGID_231_);}
	.st241{fill:url(#SVGID_232_);}
	.st242{fill:url(#SVGID_233_);}
	.st243{fill:url(#SVGID_234_);}
	.st244{fill:url(#SVGID_235_);}
	.st245{fill:url(#SVGID_236_);}
	.st246{fill:url(#SVGID_237_);}
	.st247{fill:url(#SVGID_238_);}
	.st248{fill:url(#SVGID_239_);}
	.st249{fill:url(#SVGID_240_);}
	.st250{fill:url(#SVGID_241_);}
	.st251{fill:url(#SVGID_242_);}
	.st252{fill:url(#SVGID_243_);}
	.st253{fill:url(#SVGID_244_);}
	.st254{fill:url(#SVGID_245_);}
	.st255{fill:url(#SVGID_246_);}
	.st256{fill:url(#SVGID_247_);}
	.st257{fill:url(#SVGID_248_);}
	.st258{fill:url(#SVGID_249_);}
	.st259{fill:url(#SVGID_250_);}
	.st260{fill:url(#SVGID_251_);}
	.st261{fill:url(#SVGID_252_);}
	.st262{fill:url(#SVGID_253_);}
	.st263{fill:url(#SVGID_254_);}
	.st264{fill:url(#SVGID_255_);}
	.st265{fill:url(#SVGID_256_);}
	.st266{fill:url(#SVGID_257_);}
	.st267{fill:url(#SVGID_258_);}
	.st268{fill:url(#SVGID_259_);}
	.st269{fill:url(#SVGID_260_);}
	.st270{fill:url(#SVGID_261_);}
	.st271{fill:url(#SVGID_262_);}
	.st272{fill:url(#SVGID_263_);}
	.st273{fill:url(#SVGID_264_);}
	.st274{fill:url(#SVGID_265_);}
	.st275{fill:url(#SVGID_266_);}
	.st276{fill:url(#SVGID_267_);}
	.st277{fill:url(#SVGID_268_);}
	.st278{fill:url(#SVGID_269_);}
	.st279{fill:url(#SVGID_270_);}
	.st280{fill:url(#SVGID_271_);}
	.st281{fill:url(#SVGID_272_);}
	.st282{fill:url(#SVGID_273_);}
	.st283{fill:url(#SVGID_274_);}
	.st284{fill:url(#SVGID_275_);}
	.st285{fill:url(#SVGID_276_);}
	.st286{fill:url(#SVGID_277_);}
	.st287{fill:url(#SVGID_278_);}
	.st288{fill:url(#SVGID_279_);}
	.st289{fill:url(#SVGID_280_);}
	.st290{fill:url(#SVGID_281_);}
	.st291{fill:url(#SVGID_282_);}
	.st292{fill:url(#SVGID_283_);}
	.st293{fill:url(#SVGID_284_);}
	.st294{fill:url(#SVGID_285_);}
	.st295{fill:url(#SVGID_286_);}
	.st296{fill:url(#SVGID_287_);}
	.st297{fill:url(#SVGID_288_);}
	.st298{fill:url(#SVGID_289_);}
	.st299{fill:url(#SVGID_290_);}
	.st300{fill:url(#SVGID_291_);}
	.st301{fill:url(#SVGID_292_);}
	.st302{fill:url(#SVGID_293_);}
	.st303{fill:url(#SVGID_294_);}
	.st304{fill:url(#SVGID_295_);}
	.st305{fill:url(#SVGID_296_);}
	.st306{fill:url(#SVGID_297_);}
	.st307{fill:url(#SVGID_298_);}
	.st308{fill:url(#SVGID_299_);}
	.st309{fill:url(#SVGID_300_);}
	.st310{fill:url(#SVGID_301_);}
	.st311{fill:url(#SVGID_302_);}
	.st312{fill:url(#SVGID_303_);}
	.st313{fill:url(#SVGID_304_);}
	.st314{fill:url(#SVGID_305_);}
	.st315{fill:url(#SVGID_306_);}
	.st316{fill:url(#SVGID_307_);}
	.st317{fill:url(#SVGID_308_);}
	.st318{fill:url(#SVGID_309_);}
	.st319{fill:url(#SVGID_310_);}
	.st320{fill:url(#SVGID_311_);}
	.st321{fill:url(#SVGID_312_);}
	.st322{fill:url(#SVGID_313_);}
	.st323{fill:url(#SVGID_314_);}
	.st324{fill:url(#SVGID_315_);}
	.st325{fill:url(#SVGID_316_);}
	.st326{fill:url(#SVGID_317_);}
	.st327{fill:url(#SVGID_318_);}
	.st328{fill:url(#SVGID_319_);}
	.st329{fill:url(#SVGID_320_);}
	.st330{fill:url(#SVGID_321_);}
	.st331{fill:url(#SVGID_322_);}
	.st332{fill:url(#SVGID_323_);}
	.st333{fill:url(#SVGID_324_);}
	.st334{fill:url(#SVGID_325_);}
	.st335{fill:url(#SVGID_326_);}
	.st336{fill:url(#SVGID_327_);}
	.st337{fill:url(#SVGID_328_);}
	.st338{fill:url(#SVGID_329_);}
	.st339{fill:url(#SVGID_330_);}
	.st340{fill:url(#SVGID_331_);}
	.st341{fill:#CCCCCC;}
	.st342{fill:#666666;}
	.st343{fill:#002333;stroke:#FFFFFF;stroke-miterlimit:10;}
	.st344{fill:none;stroke:#CCCCCC;stroke-width:2;stroke-miterlimit:10;}
</style>
<g id="Layer_2" class="st0">
	<rect x="0" y="0" class="st2" width="720" height="720"/>
</g>
<g id="Layer_1">
	<g>
		<g>
			<g>
				<linearGradient id="SVGID_1_" gradientUnits="userSpaceOnUse" x1="222.9468" y1="543.4106" x2="476.5065" y2="498.7012">
					<stop  offset="0" style="stop-color:#3399FF"/>
					<stop  offset="1" style="stop-color:#33FF99"/>
				</linearGradient>
				<path class="st8" d="M268.8,503.8h-13.9c-0.5,0-0.9,0.2-1.2,0.5c-0.3,0.3-0.5,0.7-0.5,1.2v15.2c0.5-0.1,1.1-0.2,1.6-0.2
					c0.6,0,1.2,0.1,1.7,0.2v-13.6h10.6v58.8h-10.6v-22.4c0-0.5-0.2-0.9-0.5-1.2c-0.3-0.3-0.7-0.5-1.2-0.5h-41.3
					c-0.5,0-0.9,0.2-1.2,0.5c-0.3,0.3-0.5,0.7-0.5,1.2v24.1c0,0.5,0.2,0.9,0.5,1.2c0.3,0.3,0.7,0.5,1.2,0.5h14
					c0.5,0,0.9-0.2,1.2-0.5c0.3-0.3,0.5-0.7,0.5-1.2v-22.4h23.9v22.4c0,0.5,0.2,0.9,0.5,1.2c0.3,0.3,0.7,0.5,1.2,0.5h13.9
					c0.5,0,0.9-0.2,1.2-0.5c0.3-0.3,0.5-0.7,0.5-1.2v-62.2c0-0.5-0.2-0.9-0.5-1.2C269.7,503.9,269.3,503.8,268.8,503.8z
					 M225.9,565.9h-10.6v-20.7h10.6V565.9z"/>
				<linearGradient id="SVGID_2_" gradientUnits="userSpaceOnUse" x1="219.2979" y1="522.7365" x2="472.8893" y2="478.0215">
					<stop  offset="0" style="stop-color:#3399FF"/>
					<stop  offset="1" style="stop-color:#33FF99"/>
				</linearGradient>
				<path class="st9" d="M213.6,531.3h34.6c0.8,2.9,3.4,5.1,6.6,5.1c3.8,0,6.8-3.1,6.8-6.8c0-3.2-2.2-5.8-5.1-6.6
					c-0.6-0.2-1.1-0.2-1.7-0.2c-0.6,0-1.1,0.1-1.6,0.2c-2.4,0.6-4.4,2.5-5,5h-18.9v-22.4c0-0.5-0.2-0.9-0.5-1.2
					c-0.3-0.3-0.7-0.5-1.2-0.5h-14c-0.5,0-0.9,0.2-1.2,0.5c-0.3,0.3-0.5,0.7-0.5,1.2v24.1c0,0.5,0.2,0.9,0.5,1.2
					C212.8,531.1,213.2,531.3,213.6,531.3z M253.2,526.4c0.5-0.3,1-0.4,1.6-0.4c0.6,0,1.2,0.2,1.7,0.5c1.1,0.6,1.8,1.7,1.8,3.1
					c0,1.9-1.6,3.5-3.6,3.5c-1.3,0-2.5-0.7-3.1-1.8c-0.3-0.5-0.5-1.1-0.5-1.7c0-0.6,0.2-1.2,0.4-1.7
					C252,527.2,252.5,526.7,253.2,526.4z M215.3,507.2h10.6v20.7h-10.6V507.2z"/>
				<linearGradient id="SVGID_3_" gradientUnits="userSpaceOnUse" x1="224.4636" y1="551.9794" x2="478.0402" y2="507.267">
					<stop  offset="0" style="stop-color:#3399FF"/>
					<stop  offset="1" style="stop-color:#33FF99"/>
				</linearGradient>
				<path class="st10" d="M305.9,565.9h-11.4l23.6-58.8h13.1l12.7,31.6h-11.4l-6.2-15.5c-0.3-0.7-0.8-1-1.6-1c-0.8,0-1.3,0.3-1.6,1
					l-6.6,16.6c0,0,0,0.1,0,0.1c0,0.1-0.1,0.2-0.1,0.2c0,0,0,0.1,0,0.2v0.1c0,0,0,0.1,0,0.2c0,0.1,0,0.1,0,0.1c0,0,0,0.1,0.1,0.2
					l0,0.1c0,0,0,0,0.1,0.1c0,0.1,0.1,0.2,0.1,0.2c0,0,0.1,0.1,0.1,0.2c0,0,0.1,0.1,0.1,0.1l0.1,0.1l0.1,0.1c0,0,0,0,0.1,0.1
					c0.1,0,0.2,0.1,0.2,0.1l0.2,0c0.1,0,0.2,0,0.2,0c0.1,0,0.2,0,0.3,0h28.4l0.2,0h0.2c0,0,0.1,0,0.2-0.1c0.1,0,0.1,0,0.1,0
					c0.1,0,0.2-0.1,0.2-0.1l0,0c0.1,0,0.2-0.1,0.2-0.2c0,0,0,0,0,0c0.2-0.2,0.3-0.4,0.4-0.7l0-0.1c0,0,0,0,0-0.1c0-0.1,0-0.2,0-0.2
					c0,0,0,0,0,0v-0.1c0-0.1,0-0.2,0-0.2c0,0,0-0.1-0.1-0.2c0-0.1,0-0.1,0-0.1l-14-35c-0.3-0.7-0.8-1-1.6-1h-15.3
					c-0.8,0-1.3,0.3-1.6,1l-25,62.2c-0.2,0.5-0.1,1.1,0.2,1.6c0.3,0.5,0.8,0.7,1.4,0.7H307c0.8,0,1.3-0.3,1.6-1l1.9-4.7
					c-1.1-0.2-2.2-0.7-3.1-1.4L305.9,565.9z M320.4,538.7l4.2-10.4l4.2,10.4H320.4z"/>
				<linearGradient id="SVGID_4_" gradientUnits="userSpaceOnUse" x1="228.9152" y1="577.272" x2="482.5159" y2="532.5554">
					<stop  offset="0" style="stop-color:#3399FF"/>
					<stop  offset="1" style="stop-color:#33FF99"/>
				</linearGradient>
				<path class="st11" d="M353.7,554.2L353.7,554.2l-0.1-0.2c-0.3-0.6-0.8-0.9-1.5-0.9H319c-0.6-2.4-2.5-4.3-4.9-4.9
					c-0.6-0.2-1.1-0.2-1.7-0.2c-0.6,0-1.1,0.1-1.6,0.2c-2.4,0.6-4.4,2.5-5,5c-0.1,0.5-0.2,1.1-0.2,1.7c0,0.6,0.1,1.2,0.2,1.7
					c0.4,1.5,1.2,2.7,2.4,3.7c0.9,0.7,2,1.2,3.1,1.4c0.3,0.1,0.7,0.1,1.1,0.1c3.2,0,5.9-2.2,6.6-5.1h16.9l4.7,11.8
					c0.3,0.7,0.8,1,1.6,1h15c0.6,0,1.1-0.2,1.4-0.7c0.3-0.5,0.4-1,0.2-1.6L353.7,554.2z M312.6,558.3c-0.1,0-0.1,0-0.2,0
					c-1.2,0-2.2-0.6-2.9-1.5c-0.1-0.1-0.1-0.2-0.2-0.3c-0.3-0.5-0.5-1.1-0.5-1.7c0-0.6,0.2-1.2,0.4-1.7c0.3-0.6,0.8-1.2,1.5-1.5
					c0.5-0.3,1-0.4,1.6-0.4c0.6,0,1.2,0.2,1.7,0.5c0.6,0.3,1.1,0.8,1.4,1.4c0.3,0.5,0.4,1,0.4,1.7c0,0.6-0.2,1.2-0.5,1.7
					C314.9,557.5,313.8,558.3,312.6,558.3z M343.3,565.9l-3.8-9.4h11.4l3.8,9.4H343.3z"/>
				<linearGradient id="SVGID_5_" gradientUnits="userSpaceOnUse" x1="229.4539" y1="580.1494" x2="483.0151" y2="535.4398">
					<stop  offset="0" style="stop-color:#3399FF"/>
					<stop  offset="1" style="stop-color:#33FF99"/>
				</linearGradient>
				<path class="st12" d="M507.9,505.1c-0.3-0.7-0.8-1.1-1.6-1.1h-19.7c-0.4,0-0.8,0.1-1.1,0.4l-21.8,17.8v-16.7
					c0-0.5-0.2-0.9-0.5-1.2c-0.3-0.3-0.7-0.5-1.2-0.5h-14c-0.5,0-0.9,0.2-1.2,0.5c-0.3,0.3-0.5,0.8-0.5,1.2v22.2
					c0.5-0.1,1.1-0.2,1.6-0.2c0.6,0,1.2,0.1,1.7,0.2v-20.5h10.6v17.7l-7.9,6.4c-0.8-0.7-1.7-1.1-2.7-1.4c-0.6-0.2-1.1-0.2-1.7-0.2
					c-0.6,0-1.1,0.1-1.6,0.2c-2.4,0.6-4.4,2.5-5,5c-0.1,0.5-0.2,1.1-0.2,1.7c0,0.6,0.1,1.2,0.2,1.7c0.8,2.9,3.4,5.1,6.6,5.1
					c3.8,0,6.8-3.1,6.8-6.8c0-0.9-0.2-1.7-0.5-2.4l32.8-26.7h14.4l-54.6,44.9c0,0,0,0-0.1,0.1l-0.3,0.3c0,0,0,0.1-0.1,0.1
					c0,0.1-0.1,0.1-0.1,0.2c0,0,0,0.1-0.1,0.1c0,0.1,0,0.1,0,0.2c0,0,0,0.1,0,0.2c0,0.1,0,0.1,0,0.2c0,0,0,0,0,0v14
					c0,0.5,0.2,0.9,0.5,1.2c0.3,0.3,0.7,0.5,1.2,0.5h14c0.5,0,0.9-0.2,1.2-0.5c0.3-0.3,0.5-0.7,0.5-1.2v-19.4l20.9,20.6
					c0.3,0.3,0.7,0.5,1.2,0.5h19.5c0.8,0,1.3-0.3,1.6-1c0.3-0.7,0.2-1.3-0.3-1.8l-32-32.3l33-27.2
					C508,506.5,508.2,505.9,507.9,505.1z M451.6,536.6c0,1.9-1.6,3.5-3.6,3.5c-1.3,0-2.5-0.7-3.1-1.8c-0.3-0.5-0.5-1.1-0.5-1.7
					c0-0.6,0.2-1.2,0.4-1.7c0.3-0.6,0.8-1.2,1.5-1.5c0.5-0.3,1-0.4,1.6-0.4c0.6,0,1.2,0.2,1.7,0.5c0,0,0,0,0,0
					c1,0.6,1.7,1.7,1.7,2.9C451.6,536.5,451.6,536.5,451.6,536.6z M460.4,565.9h-10.6v-11.5l10.6-8.7V565.9z M501.3,565.9h-14.7
					l-23.1-22.7l8.4-6.8L501.3,565.9z"/>
				<linearGradient id="SVGID_6_" gradientUnits="userSpaceOnUse" x1="227.465" y1="568.9969" x2="481.0434" y2="524.2842">
					<stop  offset="0" style="stop-color:#3399FF"/>
					<stop  offset="1" style="stop-color:#33FF99"/>
				</linearGradient>
				<path class="st13" d="M421.9,514.2c-0.6-0.2-1.1-0.2-1.7-0.2c-0.6,0-1.1,0.1-1.6,0.2c-2.4,0.6-4.3,2.5-4.9,4.9h-10.8
					c-4.9,0-9,1.7-12.4,5.1c-3.4,3.4-5.2,7.6-5.2,12.4c0,4.8,1.7,9,5.2,12.4s7.6,5.2,12.4,5.2h17.5v11.8H404c-8.1,0-15-2.9-20.8-8.6
					s-8.6-12.7-8.6-20.8c0-8.1,2.9-15,8.6-20.8c5.7-5.7,12.7-8.6,20.8-8.6h17.8c0.5,0,0.9-0.2,1.2-0.5c0.3-0.3,0.5-0.7,0.5-1.2
					c0-0.5-0.2-0.9-0.5-1.2c-0.3-0.3-0.8-0.5-1.2-0.5h-17.8c-9,0-16.7,3.2-23.2,9.6c-6.4,6.4-9.6,14.2-9.6,23.2s3.2,16.7,9.6,23.2
					c6.4,6.4,14.2,9.6,23.2,9.6h17.8c0.5,0,0.9-0.2,1.2-0.5c0.3-0.3,0.5-0.7,0.5-1.2v-15.2c0-0.5-0.2-0.9-0.5-1.2
					c-0.3-0.3-0.8-0.5-1.2-0.5h-19.2c-3.9,0-7.3-1.4-10-4.2c-2.8-2.8-4.2-6.1-4.2-10c0-3.9,1.4-7.3,4.2-10c2.8-2.8,6.1-4.2,10-4.2
					h10.8c0,0,0,0.1,0,0.1c0.8,2.9,3.4,5.1,6.6,5.1c3.8,0,6.8-3.1,6.8-6.8C426.9,517.6,424.8,514.9,421.9,514.2z M420.1,524.3
					c-1.3,0-2.5-0.7-3.1-1.8c0,0,0-0.1,0-0.1c-0.3-0.5-0.4-1-0.4-1.6c0-0.6,0.2-1.2,0.4-1.7c0,0,0-0.1,0.1-0.1
					c0.3-0.6,0.8-1.1,1.4-1.4c0.5-0.3,1-0.4,1.6-0.4c0.6,0,1.2,0.2,1.7,0.5c1.1,0.6,1.8,1.7,1.8,3.1
					C423.7,522.7,422.1,524.3,420.1,524.3z"/>
			</g>
			<g>
				<linearGradient id="SVGID_7_" gradientUnits="userSpaceOnUse" x1="218.5355" y1="601.5237" x2="519.8639" y2="548.3914">
					<stop  offset="0" style="stop-color:#3399FF"/>
					<stop  offset="1" style="stop-color:#33FF99"/>
				</linearGradient>
				<path class="st14" d="M228.9,591.7V603c0,5.2-3.1,9-8.5,9c-5.5,0-8.5-3.7-8.5-9v-11.3h4.7v11.8c0,2.6,1.4,4.2,3.8,4.2
					c2.2,0,3.8-1.7,3.8-4.2v-11.8H228.9z"/>
				<linearGradient id="SVGID_8_" gradientUnits="userSpaceOnUse" x1="213.0307" y1="610.6132" x2="520.3187" y2="556.4301">
					<stop  offset="0" style="stop-color:#3399FF"/>
					<stop  offset="1" style="stop-color:#33FF99"/>
				</linearGradient>
				<path class="st15" d="M277.3,598.3c0,3.6-2.4,6.8-6.6,6.8h-4.2v6.4h-4.7v-19.8h8C274.9,591.7,277.3,594.5,277.3,598.3z
					 M272.5,598.4c0-1.8-1.3-2.5-2.9-2.5h-3.3v5h3.3C271.2,600.9,272.5,600,272.5,598.4z"/>
				<linearGradient id="SVGID_9_" gradientUnits="userSpaceOnUse" x1="211.0514" y1="620.3215" x2="512.8372" y2="567.1085">
					<stop  offset="0" style="stop-color:#3399FF"/>
					<stop  offset="1" style="stop-color:#33FF99"/>
				</linearGradient>
				<path class="st16" d="M325.1,605.6c0,3.7-2.9,6.4-8.3,6.4c-5.1,0-8.3-3.3-8.3-3.3l2.2-3.8c2.2,2.2,4.5,2.8,6.1,2.8
					c2.6,0,3.5-0.8,3.5-1.9c0-0.9-0.7-1.5-3.3-2c-5.3-0.9-7.8-2.8-7.8-6.2c0-3.5,2.9-6.4,7.8-6.4c0.7,0,4.6,0.1,7.2,2.5l-2.1,3.7
					c0,0-1.8-2-5.2-2c-1.6,0-3.1,0.6-3.1,1.7c0,0.9,0.7,1.4,3.1,1.9C321.8,600.1,325.1,601.3,325.1,605.6z"/>
				<linearGradient id="SVGID_10_" gradientUnits="userSpaceOnUse" x1="218.0417" y1="626.8153" x2="501.8668" y2="576.7693">
					<stop  offset="0" style="stop-color:#3399FF"/>
					<stop  offset="1" style="stop-color:#33FF99"/>
				</linearGradient>
				<path class="st17" d="M371.1,591.7v4.2h-5.2v15.6h-4.7V596H356v-4.2H371.1z"/>
				<linearGradient id="SVGID_11_" gradientUnits="userSpaceOnUse" x1="222.7944" y1="635.2638" x2="495.7563" y2="587.1332">
					<stop  offset="0" style="stop-color:#3399FF"/>
					<stop  offset="1" style="stop-color:#33FF99"/>
				</linearGradient>
				<path class="st18" d="M413.5,608.2h-7.9l-1.2,3.3h-5.2l8.2-19.8h4.4l8.2,19.8h-5.2L413.5,608.2z M411.8,604l-2.3-6.1l-2.3,6.1
					H411.8z"/>
				<linearGradient id="SVGID_12_" gradientUnits="userSpaceOnUse" x1="217.2653" y1="643.1642" x2="501.0904" y2="593.1182">
					<stop  offset="0" style="stop-color:#3399FF"/>
					<stop  offset="1" style="stop-color:#33FF99"/>
				</linearGradient>
				<path class="st19" d="M463,591.7v4.2h-5.2v15.6h-4.7V596h-5.2v-4.2H463z"/>
				<linearGradient id="SVGID_13_" gradientUnits="userSpaceOnUse" x1="168.7493" y1="660.3243" x2="499.3752" y2="602.026">
					<stop  offset="0" style="stop-color:#3399FF"/>
					<stop  offset="1" style="stop-color:#33FF99"/>
				</linearGradient>
				<path class="st20" d="M500,596v3.5h6.6v4.2H500v3.5h8v4.2h-12.7v-19.8h12.7v4.2H500z"/>
			</g>
		</g>
		<g>
			<g>
				<g>
					<linearGradient id="SVGID_14_" gradientUnits="userSpaceOnUse" x1="225.619" y1="403.9369" x2="490.8445" y2="138.7114">
						<stop  offset="0" style="stop-color:#3399FF"/>
						<stop  offset="1" style="stop-color:#33FF99"/>
					</linearGradient>
					<path class="st21" d="M402.9,221.5h-85.7c-2.9,0-5.2,2.3-5.2,5.2v85.7c0,2.9,2.3,5.2,5.2,5.2h85.7c2.9,0,5.2-2.3,5.2-5.2v-85.7
						C408.1,223.8,405.7,221.5,402.9,221.5z M382.8,286.6c0,3.1-2.6,5.7-5.7,5.7h-34.2c-3.1,0-5.7-2.6-5.7-5.7v-34.2
						c0-3.1,2.6-5.7,5.7-5.7h34.2c3.1,0,5.7,2.6,5.7,5.7V286.6z"/>
				</g>
				<g>
					<g>
						<linearGradient id="SVGID_15_" gradientUnits="userSpaceOnUse" x1="216.0783" y1="394.3962" x2="481.3037" y2="129.1707">
							<stop  offset="0" style="stop-color:#3399FF"/>
							<stop  offset="1" style="stop-color:#33FF99"/>
						</linearGradient>
						<polygon class="st22" points="341.1,257.6 351.2,266 341.1,274.3 343.5,276.7 356.4,265.9 343.5,255.2 						"/>
					</g>
					<g>
						<linearGradient id="SVGID_16_" gradientUnits="userSpaceOnUse" x1="236.106" y1="414.4239" x2="501.3314" y2="149.1984">
							<stop  offset="0" style="stop-color:#3399FF"/>
							<stop  offset="1" style="stop-color:#33FF99"/>
						</linearGradient>
						<rect x="357.5" y="280.8" class="st23" width="21.4" height="3.2"/>
					</g>
				</g>
			</g>
			<g>
				<linearGradient id="SVGID_17_" gradientUnits="userSpaceOnUse" x1="229.0538" y1="407.3717" x2="494.2792" y2="142.1462">
					<stop  offset="0" style="stop-color:#3399FF"/>
					<stop  offset="1" style="stop-color:#33FF99"/>
				</linearGradient>
				<path class="st24" d="M410.4,230.6h-4.6c-1.3,0-2.3-1-2.3-2.3l0,0c0-1.3,1-2.3,2.3-2.3h4.6c1.3,0,2.3,1,2.3,2.3l0,0
					C412.7,229.6,411.6,230.6,410.4,230.6z"/>
			</g>
			<g>
				<linearGradient id="SVGID_18_" gradientUnits="userSpaceOnUse" x1="233.6333" y1="411.9512" x2="498.8588" y2="146.7258">
					<stop  offset="0" style="stop-color:#3399FF"/>
					<stop  offset="1" style="stop-color:#33FF99"/>
				</linearGradient>
				<path class="st25" d="M410.4,239.8h-4.6c-1.3,0-2.3-1-2.3-2.3l0,0c0-1.3,1-2.3,2.3-2.3h4.6c1.3,0,2.3,1,2.3,2.3l0,0
					C412.7,238.8,411.6,239.8,410.4,239.8z"/>
			</g>
			<g>
				<linearGradient id="SVGID_19_" gradientUnits="userSpaceOnUse" x1="238.2129" y1="416.5308" x2="503.4383" y2="151.3053">
					<stop  offset="0" style="stop-color:#3399FF"/>
					<stop  offset="1" style="stop-color:#33FF99"/>
				</linearGradient>
				<path class="st26" d="M410.4,248.9h-4.6c-1.3,0-2.3-1-2.3-2.3l0,0c0-1.3,1-2.3,2.3-2.3h4.6c1.3,0,2.3,1,2.3,2.3l0,0
					C412.7,247.9,411.6,248.9,410.4,248.9z"/>
			</g>
			<g>
				<linearGradient id="SVGID_20_" gradientUnits="userSpaceOnUse" x1="242.7924" y1="421.1103" x2="508.0179" y2="155.8848">
					<stop  offset="0" style="stop-color:#3399FF"/>
					<stop  offset="1" style="stop-color:#33FF99"/>
				</linearGradient>
				<path class="st27" d="M410.4,258.1h-4.6c-1.3,0-2.3-1-2.3-2.3l0,0c0-1.3,1-2.3,2.3-2.3h4.6c1.3,0,2.3,1,2.3,2.3l0,0
					C412.7,257.1,411.6,258.1,410.4,258.1z"/>
			</g>
			<g>
				<linearGradient id="SVGID_21_" gradientUnits="userSpaceOnUse" x1="247.3719" y1="425.6898" x2="512.5974" y2="160.4644">
					<stop  offset="0" style="stop-color:#3399FF"/>
					<stop  offset="1" style="stop-color:#33FF99"/>
				</linearGradient>
				<path class="st28" d="M410.4,267.3h-4.6c-1.3,0-2.3-1-2.3-2.3l0,0c0-1.3,1-2.3,2.3-2.3h4.6c1.3,0,2.3,1,2.3,2.3l0,0
					C412.7,266.2,411.6,267.3,410.4,267.3z"/>
			</g>
			<g>
				<linearGradient id="SVGID_22_" gradientUnits="userSpaceOnUse" x1="251.9515" y1="430.2694" x2="517.1769" y2="165.0439">
					<stop  offset="0" style="stop-color:#3399FF"/>
					<stop  offset="1" style="stop-color:#33FF99"/>
				</linearGradient>
				<path class="st29" d="M410.4,276.4h-4.6c-1.3,0-2.3-1-2.3-2.3l0,0c0-1.3,1-2.3,2.3-2.3h4.6c1.3,0,2.3,1,2.3,2.3l0,0
					C412.7,275.4,411.6,276.4,410.4,276.4z"/>
			</g>
			<g>
				<linearGradient id="SVGID_23_" gradientUnits="userSpaceOnUse" x1="256.531" y1="434.8489" x2="521.7565" y2="169.6235">
					<stop  offset="0" style="stop-color:#3399FF"/>
					<stop  offset="1" style="stop-color:#33FF99"/>
				</linearGradient>
				<path class="st30" d="M410.4,285.6h-4.6c-1.3,0-2.3-1-2.3-2.3l0,0c0-1.3,1-2.3,2.3-2.3h4.6c1.3,0,2.3,1,2.3,2.3l0,0
					C412.7,284.6,411.6,285.6,410.4,285.6z"/>
			</g>
			<g>
				<linearGradient id="SVGID_24_" gradientUnits="userSpaceOnUse" x1="261.1106" y1="439.4285" x2="526.3361" y2="174.203">
					<stop  offset="0" style="stop-color:#3399FF"/>
					<stop  offset="1" style="stop-color:#33FF99"/>
				</linearGradient>
				<path class="st31" d="M410.4,294.7h-4.6c-1.3,0-2.3-1-2.3-2.3l0,0c0-1.3,1-2.3,2.3-2.3h4.6c1.3,0,2.3,1,2.3,2.3l0,0
					C412.7,293.7,411.6,294.7,410.4,294.7z"/>
			</g>
			<g>
				<linearGradient id="SVGID_25_" gradientUnits="userSpaceOnUse" x1="265.6901" y1="444.008" x2="530.9156" y2="178.7826">
					<stop  offset="0" style="stop-color:#3399FF"/>
					<stop  offset="1" style="stop-color:#33FF99"/>
				</linearGradient>
				<path class="st32" d="M410.4,303.9h-4.6c-1.3,0-2.3-1-2.3-2.3l0,0c0-1.3,1-2.3,2.3-2.3h4.6c1.3,0,2.3,1,2.3,2.3l0,0
					C412.7,302.9,411.6,303.9,410.4,303.9z"/>
			</g>
			<g>
				<linearGradient id="SVGID_26_" gradientUnits="userSpaceOnUse" x1="270.2697" y1="448.5876" x2="535.4951" y2="183.3621">
					<stop  offset="0" style="stop-color:#3399FF"/>
					<stop  offset="1" style="stop-color:#33FF99"/>
				</linearGradient>
				<path class="st33" d="M410.4,313.1h-4.6c-1.3,0-2.3-1-2.3-2.3l0,0c0-1.3,1-2.3,2.3-2.3h4.6c1.3,0,2.3,1,2.3,2.3l0,0
					C412.7,312,411.6,313.1,410.4,313.1z"/>
			</g>
			<g>
				<linearGradient id="SVGID_27_" gradientUnits="userSpaceOnUse" x1="180.9686" y1="359.2864" x2="446.194" y2="94.061">
					<stop  offset="0" style="stop-color:#3399FF"/>
					<stop  offset="1" style="stop-color:#33FF99"/>
				</linearGradient>
				<path class="st34" d="M314.2,230.6h-4.6c-1.3,0-2.3-1-2.3-2.3l0,0c0-1.3,1-2.3,2.3-2.3h4.6c1.3,0,2.3,1,2.3,2.3l0,0
					C316.5,229.6,315.5,230.6,314.2,230.6z"/>
			</g>
			<g>
				<linearGradient id="SVGID_28_" gradientUnits="userSpaceOnUse" x1="185.5481" y1="363.866" x2="450.7736" y2="98.6405">
					<stop  offset="0" style="stop-color:#3399FF"/>
					<stop  offset="1" style="stop-color:#33FF99"/>
				</linearGradient>
				<path class="st35" d="M314.2,239.8h-4.6c-1.3,0-2.3-1-2.3-2.3l0,0c0-1.3,1-2.3,2.3-2.3h4.6c1.3,0,2.3,1,2.3,2.3l0,0
					C316.5,238.8,315.5,239.8,314.2,239.8z"/>
			</g>
			<g>
				<linearGradient id="SVGID_29_" gradientUnits="userSpaceOnUse" x1="190.1276" y1="368.4455" x2="455.3531" y2="103.2201">
					<stop  offset="0" style="stop-color:#3399FF"/>
					<stop  offset="1" style="stop-color:#33FF99"/>
				</linearGradient>
				<path class="st36" d="M314.2,248.9h-4.6c-1.3,0-2.3-1-2.3-2.3l0,0c0-1.3,1-2.3,2.3-2.3h4.6c1.3,0,2.3,1,2.3,2.3l0,0
					C316.5,247.9,315.5,248.9,314.2,248.9z"/>
			</g>
			<g>
				<linearGradient id="SVGID_30_" gradientUnits="userSpaceOnUse" x1="194.7072" y1="373.0251" x2="459.9326" y2="107.7996">
					<stop  offset="0" style="stop-color:#3399FF"/>
					<stop  offset="1" style="stop-color:#33FF99"/>
				</linearGradient>
				<path class="st37" d="M314.2,258.1h-4.6c-1.3,0-2.3-1-2.3-2.3l0,0c0-1.3,1-2.3,2.3-2.3h4.6c1.3,0,2.3,1,2.3,2.3l0,0
					C316.5,257.1,315.5,258.1,314.2,258.1z"/>
			</g>
			<g>
				<linearGradient id="SVGID_31_" gradientUnits="userSpaceOnUse" x1="199.2867" y1="377.6046" x2="464.5122" y2="112.3792">
					<stop  offset="0" style="stop-color:#3399FF"/>
					<stop  offset="1" style="stop-color:#33FF99"/>
				</linearGradient>
				<path class="st38" d="M314.2,267.3h-4.6c-1.3,0-2.3-1-2.3-2.3l0,0c0-1.3,1-2.3,2.3-2.3h4.6c1.3,0,2.3,1,2.3,2.3l0,0
					C316.5,266.2,315.5,267.3,314.2,267.3z"/>
			</g>
			<g>
				<linearGradient id="SVGID_32_" gradientUnits="userSpaceOnUse" x1="203.8663" y1="382.1842" x2="469.0917" y2="116.9587">
					<stop  offset="0" style="stop-color:#3399FF"/>
					<stop  offset="1" style="stop-color:#33FF99"/>
				</linearGradient>
				<path class="st39" d="M314.2,276.4h-4.6c-1.3,0-2.3-1-2.3-2.3l0,0c0-1.3,1-2.3,2.3-2.3h4.6c1.3,0,2.3,1,2.3,2.3l0,0
					C316.5,275.4,315.5,276.4,314.2,276.4z"/>
			</g>
			<g>
				<linearGradient id="SVGID_33_" gradientUnits="userSpaceOnUse" x1="208.4458" y1="386.7637" x2="473.6713" y2="121.5383">
					<stop  offset="0" style="stop-color:#3399FF"/>
					<stop  offset="1" style="stop-color:#33FF99"/>
				</linearGradient>
				<path class="st40" d="M314.2,285.6h-4.6c-1.3,0-2.3-1-2.3-2.3l0,0c0-1.3,1-2.3,2.3-2.3h4.6c1.3,0,2.3,1,2.3,2.3l0,0
					C316.5,284.6,315.5,285.6,314.2,285.6z"/>
			</g>
			<g>
				<linearGradient id="SVGID_34_" gradientUnits="userSpaceOnUse" x1="213.0254" y1="391.3433" x2="478.2508" y2="126.1178">
					<stop  offset="0" style="stop-color:#3399FF"/>
					<stop  offset="1" style="stop-color:#33FF99"/>
				</linearGradient>
				<path class="st41" d="M314.2,294.7h-4.6c-1.3,0-2.3-1-2.3-2.3l0,0c0-1.3,1-2.3,2.3-2.3h4.6c1.3,0,2.3,1,2.3,2.3l0,0
					C316.5,293.7,315.5,294.7,314.2,294.7z"/>
			</g>
			<g>
				<linearGradient id="SVGID_35_" gradientUnits="userSpaceOnUse" x1="217.6049" y1="395.9228" x2="482.8304" y2="130.6974">
					<stop  offset="0" style="stop-color:#3399FF"/>
					<stop  offset="1" style="stop-color:#33FF99"/>
				</linearGradient>
				<path class="st42" d="M314.2,303.9h-4.6c-1.3,0-2.3-1-2.3-2.3l0,0c0-1.3,1-2.3,2.3-2.3h4.6c1.3,0,2.3,1,2.3,2.3l0,0
					C316.5,302.9,315.5,303.9,314.2,303.9z"/>
			</g>
			<g>
				<linearGradient id="SVGID_36_" gradientUnits="userSpaceOnUse" x1="222.1845" y1="400.5023" x2="487.4099" y2="135.2769">
					<stop  offset="0" style="stop-color:#3399FF"/>
					<stop  offset="1" style="stop-color:#33FF99"/>
				</linearGradient>
				<path class="st43" d="M314.2,313.1h-4.6c-1.3,0-2.3-1-2.3-2.3l0,0c0-1.3,1-2.3,2.3-2.3h4.6c1.3,0,2.3,1,2.3,2.3l0,0
					C316.5,312,315.5,313.1,314.2,313.1z"/>
			</g>
			<g>
				<g>
					<linearGradient id="SVGID_37_" gradientUnits="userSpaceOnUse" x1="310.9131" y1="489.231" x2="576.1386" y2="224.0056">
						<stop  offset="0" style="stop-color:#3399FF"/>
						<stop  offset="1" style="stop-color:#33FF99"/>
					</linearGradient>
					<polygon class="st44" points="425.4,345.6 436.8,334.2 436.8,300.3 416,300.3 416,302.9 434.3,302.9 434.3,333.1 422.8,344.6 
						422.8,386.7 432,400.5 432,449.4 434.5,449.4 434.5,399.7 425.4,385.9 					"/>
				</g>
				<g>
					<linearGradient id="SVGID_38_" gradientUnits="userSpaceOnUse" x1="321.7896" y1="500.1074" x2="587.015" y2="234.882">
						<stop  offset="0" style="stop-color:#3399FF"/>
						<stop  offset="1" style="stop-color:#33FF99"/>
					</linearGradient>
					<polygon class="st45" points="416,272.9 416,275.4 483.2,275.4 503,293 503,362.9 491.5,374.4 491.5,407.5 503,418.9 
						503,449.4 505.5,449.4 505.5,417.9 494.1,406.4 494.1,375.4 505.5,364 505.5,291.9 484.1,272.9 					"/>
				</g>
				<g>
					<linearGradient id="SVGID_39_" gradientUnits="userSpaceOnUse" x1="317.21" y1="495.5279" x2="582.4354" y2="230.3024">
						<stop  offset="0" style="stop-color:#3399FF"/>
						<stop  offset="1" style="stop-color:#33FF99"/>
					</linearGradient>
					<polygon class="st46" points="489.5,296.4 472.7,282 416,282 416,284.6 471.7,284.6 487,297.6 487,356 475.5,367.5 
						475.5,449.4 478.1,449.4 478.1,368.5 489.5,357.1 					"/>
				</g>
				<g>
					<linearGradient id="SVGID_40_" gradientUnits="userSpaceOnUse" x1="371.7148" y1="550.0327" x2="636.9402" y2="284.8073">
						<stop  offset="0" style="stop-color:#3399FF"/>
						<stop  offset="1" style="stop-color:#33FF99"/>
					</linearGradient>
					<path class="st47" d="M484.7,435.7c-1.3,0.5-2.3,1.8-2.3,3.3c0,2,1.6,3.6,3.6,3.6s3.6-1.6,3.6-3.6c0-1.5-1-2.8-2.3-3.3v-16.5
						l6.6,6.6v23.6h2.5v-24.7L484.7,413V435.7z M485.9,440c-0.6,0-1-0.5-1-1c0-0.6,0.5-1,1-1c0.6,0,1,0.5,1,1
						C487,439.6,486.5,440,485.9,440z"/>
				</g>
				<g>
					<linearGradient id="SVGID_41_" gradientUnits="userSpaceOnUse" x1="315.4927" y1="493.8106" x2="580.7181" y2="228.5851">
						<stop  offset="0" style="stop-color:#3399FF"/>
						<stop  offset="1" style="stop-color:#33FF99"/>
					</linearGradient>
					<path class="st48" d="M464.3,378.4v-16.8l11.4-11.4v-47.6c1.3-0.5,2.3-1.8,2.3-3.3c0-2-1.6-3.6-3.6-3.6c-2,0-3.6,1.6-3.6,3.6
						c0,1.5,1,2.8,2.3,3.3v46.5l-11.4,11.4v17.8c-1.3,0.5-2.3,1.8-2.3,3.3c0,2,1.6,3.6,3.6,3.6s3.6-1.6,3.6-3.6
						C466.6,380.2,465.6,378.9,464.3,378.4z M474.5,298.3c0.6,0,1,0.5,1,1c0,0.6-0.5,1-1,1c-0.6,0-1-0.5-1-1
						C473.5,298.8,473.9,298.3,474.5,298.3z M463,382.8c-0.6,0-1-0.5-1-1c0-0.6,0.5-1,1-1c0.6,0,1,0.5,1,1
						C464.1,382.3,463.6,382.8,463,382.8z"/>
				</g>
				<g>
					<linearGradient id="SVGID_42_" gradientUnits="userSpaceOnUse" x1="335.478" y1="513.7958" x2="600.7034" y2="248.5704">
						<stop  offset="0" style="stop-color:#3399FF"/>
						<stop  offset="1" style="stop-color:#33FF99"/>
					</linearGradient>
					<path class="st49" d="M424.1,401.1c-2,0-3.6,1.6-3.6,3.6c0,1.5,1,2.8,2.3,3.3v41.5h2.5V408c1.3-0.5,2.3-1.8,2.3-3.3
						C427.7,402.7,426.1,401.1,424.1,401.1z M424.1,403.6c0.6,0,1,0.5,1,1s-0.5,1-1,1c-0.6,0-1-0.5-1-1S423.6,403.6,424.1,403.6z"/>
				</g>
				<g>
					<linearGradient id="SVGID_43_" gradientUnits="userSpaceOnUse" x1="357.281" y1="535.5989" x2="622.5065" y2="270.3734">
						<stop  offset="0" style="stop-color:#3399FF"/>
						<stop  offset="1" style="stop-color:#33FF99"/>
					</linearGradient>
					<path class="st50" d="M505.5,379.5c0-2-1.6-3.6-3.6-3.6c-2,0-3.6,1.6-3.6,3.6c0,1.5,1,2.8,2.3,3.3V399
						c-1.3,0.5-2.3,1.8-2.3,3.3c0,2,1.6,3.6,3.6,3.6c2,0,3.6-1.6,3.6-3.6c0-1.5-1-2.8-2.3-3.3v-16.3
						C504.6,382.3,505.5,381,505.5,379.5z M502,378.4c0.6,0,1,0.5,1,1c0,0.6-0.5,1-1,1c-0.6,0-1-0.5-1-1
						C500.9,378.9,501.4,378.4,502,378.4z M502,403.4c-0.6,0-1-0.5-1-1c0-0.6,0.5-1,1-1c0.6,0,1,0.5,1,1
						C503,402.9,502.5,403.4,502,403.4z"/>
				</g>
				<g>
					<linearGradient id="SVGID_44_" gradientUnits="userSpaceOnUse" x1="241.0751" y1="419.393" x2="506.3005" y2="154.1675">
						<stop  offset="0" style="stop-color:#3399FF"/>
						<stop  offset="1" style="stop-color:#33FF99"/>
					</linearGradient>
					<polygon class="st51" points="297.2,344.6 285.7,333.1 285.7,302.9 304,302.9 304,300.3 283.2,300.3 283.2,334.2 294.6,345.6 
						294.6,383.7 285.5,399.7 285.5,449.4 288,449.4 288,400.4 297.2,384.4 					"/>
				</g>
				<g>
					<linearGradient id="SVGID_45_" gradientUnits="userSpaceOnUse" x1="204.0414" y1="382.3593" x2="469.2669" y2="117.1339">
						<stop  offset="0" style="stop-color:#3399FF"/>
						<stop  offset="1" style="stop-color:#33FF99"/>
					</linearGradient>
					<polygon class="st52" points="228.5,374.4 217,362.9 217,293 236.8,275.4 304,275.4 304,272.9 235.9,272.9 214.5,291.9 
						214.5,364 225.9,375.4 225.9,406.4 214.5,417.9 214.5,449.4 217,449.4 217,418.9 228.5,407.5 					"/>
				</g>
				<g>
					<linearGradient id="SVGID_46_" gradientUnits="userSpaceOnUse" x1="216.0594" y1="394.3773" x2="481.2849" y2="129.1518">
						<stop  offset="0" style="stop-color:#3399FF"/>
						<stop  offset="1" style="stop-color:#33FF99"/>
					</linearGradient>
					<polygon class="st53" points="233,297.6 248.3,284.6 304,284.6 304,282 247.3,282 230.5,296.4 230.5,357.1 241.9,368.5 
						241.9,449.4 244.5,449.4 244.5,367.5 233,356 					"/>
				</g>
				<g>
					<linearGradient id="SVGID_47_" gradientUnits="userSpaceOnUse" x1="242.4565" y1="420.7744" x2="507.682" y2="155.549">
						<stop  offset="0" style="stop-color:#3399FF"/>
						<stop  offset="1" style="stop-color:#33FF99"/>
					</linearGradient>
					<path class="st54" d="M235.3,435.7V413l-11.7,11.7v24.7h2.5v-23.6l6.6-6.6v16.5c-1.3,0.5-2.3,1.8-2.3,3.3c0,2,1.6,3.6,3.6,3.6
						c2,0,3.6-1.6,3.6-3.6C237.6,437.5,236.7,436.2,235.3,435.7z M234.1,440c-0.6,0-1-0.5-1-1c0-0.6,0.5-1,1-1s1,0.5,1,1
						C235.1,439.6,234.6,440,234.1,440z"/>
				</g>
				<g>
					<linearGradient id="SVGID_48_" gradientUnits="userSpaceOnUse" x1="206.7285" y1="385.0464" x2="471.9539" y2="119.8209">
						<stop  offset="0" style="stop-color:#3399FF"/>
						<stop  offset="1" style="stop-color:#33FF99"/>
					</linearGradient>
					<path class="st55" d="M260.5,381.8c0-1.5-1-2.8-2.3-3.3v-17.8l-11.4-11.4v-46.5c1.3-0.5,2.3-1.8,2.3-3.3c0-2-1.6-3.6-3.6-3.6
						s-3.6,1.6-3.6,3.6c0,1.5,1,2.8,2.3,3.3v47.6l11.4,11.4v16.8c-1.3,0.5-2.3,1.8-2.3,3.3c0,2,1.6,3.6,3.6,3.6
						S260.5,383.7,260.5,381.8z M245.5,298.3c0.6,0,1,0.5,1,1c0,0.6-0.5,1-1,1s-1-0.5-1-1C244.5,298.8,245,298.3,245.5,298.3z
						 M255.9,381.8c0-0.6,0.5-1,1-1c0.6,0,1,0.5,1,1c0,0.6-0.5,1-1,1C256.4,382.8,255.9,382.3,255.9,381.8z"/>
				</g>
				<g>
					<linearGradient id="SVGID_49_" gradientUnits="userSpaceOnUse" x1="271.3643" y1="449.6823" x2="536.5898" y2="184.4568">
						<stop  offset="0" style="stop-color:#3399FF"/>
						<stop  offset="1" style="stop-color:#33FF99"/>
					</linearGradient>
					<path class="st56" d="M295.9,401.1c-2,0-3.6,1.6-3.6,3.6c0,1.5,1,2.8,2.3,3.3v41.5h2.5V408c1.3-0.5,2.3-1.8,2.3-3.3
						C299.4,402.7,297.9,401.1,295.9,401.1z M295.9,403.6c0.6,0,1,0.5,1,1s-0.5,1-1,1c-0.6,0-1-0.5-1-1S295.3,403.6,295.9,403.6z"/>
				</g>
				<g>
					<linearGradient id="SVGID_50_" gradientUnits="userSpaceOnUse" x1="236.5457" y1="414.8636" x2="501.7712" y2="149.6382">
						<stop  offset="0" style="stop-color:#3399FF"/>
						<stop  offset="1" style="stop-color:#33FF99"/>
					</linearGradient>
					<path class="st57" d="M306.3,387.6V340l-11.4-11.4V312h9.2v-2.5h-11.7v20.1l11.4,11.4v46.5c-1.3,0.5-2.3,1.8-2.3,3.3
						c0,2,1.6,3.6,3.6,3.6s3.6-1.6,3.6-3.6C308.6,389.4,307.7,388.1,306.3,387.6z M305,391.9c-0.6,0-1-0.5-1-1c0-0.6,0.5-1,1-1
						s1,0.5,1,1C306.1,391.5,305.6,391.9,305,391.9z"/>
				</g>
				<g>
					<linearGradient id="SVGID_51_" gradientUnits="userSpaceOnUse" x1="215.3151" y1="393.633" x2="480.5406" y2="128.4076">
						<stop  offset="0" style="stop-color:#3399FF"/>
						<stop  offset="1" style="stop-color:#33FF99"/>
					</linearGradient>
					<path class="st58" d="M214.5,402.4c0,2,1.6,3.6,3.6,3.6c2,0,3.6-1.6,3.6-3.6c0-1.5-1-2.8-2.3-3.3v-16.3
						c1.3-0.5,2.3-1.8,2.3-3.3c0-2-1.6-3.6-3.6-3.6c-2,0-3.6,1.6-3.6,3.6c0,1.5,1,2.8,2.3,3.3V399
						C215.4,399.6,214.5,400.8,214.5,402.4z M218,403.4c-0.6,0-1-0.5-1-1c0-0.6,0.5-1,1-1s1,0.5,1,1
						C219.1,402.9,218.6,403.4,218,403.4z M218,378.4c0.6,0,1,0.5,1,1c0,0.6-0.5,1-1,1s-1-0.5-1-1C217,378.9,217.5,378.4,218,378.4z
						"/>
				</g>
				<g>
					<linearGradient id="SVGID_52_" gradientUnits="userSpaceOnUse" x1="222.1845" y1="400.5023" x2="487.4099" y2="135.2769">
						<stop  offset="0" style="stop-color:#3399FF"/>
						<stop  offset="1" style="stop-color:#33FF99"/>
					</linearGradient>
					<polygon class="st59" points="422.8,194.5 434.3,206 434.3,236.2 416,236.2 416,238.8 436.8,238.8 436.8,204.9 425.4,193.5 
						425.4,155.7 434.5,148.8 434.5,137.8 432,137.8 432,147.6 422.8,154.4 					"/>
				</g>
				<g>
					<linearGradient id="SVGID_53_" gradientUnits="userSpaceOnUse" x1="252.9212" y1="431.2391" x2="518.1467" y2="166.0137">
						<stop  offset="0" style="stop-color:#3399FF"/>
						<stop  offset="1" style="stop-color:#33FF99"/>
					</linearGradient>
					<polygon class="st60" points="503,112.6 503,122.5 491.5,133.9 491.5,164.8 503,176.2 503,246.1 483.2,263.7 416,263.7 
						416,266.2 484.1,266.2 505.5,247.2 505.5,175.1 494.1,163.7 494.1,135 505.5,123.5 505.5,112.6 					"/>
				</g>
				<g>
					<linearGradient id="SVGID_54_" gradientUnits="userSpaceOnUse" x1="239.7584" y1="418.0763" x2="504.9839" y2="152.8508">
						<stop  offset="0" style="stop-color:#3399FF"/>
						<stop  offset="1" style="stop-color:#33FF99"/>
					</linearGradient>
					<polygon class="st61" points="487,241.5 471.7,254.5 416,254.5 416,257.1 472.7,257.1 489.5,242.7 489.5,182 478.1,170.6 
						478.1,108 475.5,108 475.5,171.6 487,183.1 					"/>
				</g>
				<g>
					<linearGradient id="SVGID_55_" gradientUnits="userSpaceOnUse" x1="238.7853" y1="417.1032" x2="504.0108" y2="151.8777">
						<stop  offset="0" style="stop-color:#3399FF"/>
						<stop  offset="1" style="stop-color:#33FF99"/>
					</linearGradient>
					<path class="st62" d="M473.2,189.9v16.8c-1.3,0.5-2.3,1.8-2.3,3.3c0,2,1.6,3.6,3.6,3.6c2,0,3.6-1.6,3.6-3.6
						c0-1.5-1-2.8-2.3-3.3v-17.8l-11.4-11.4v-9.9c1.3-0.5,2.3-1.8,2.3-3.3c0-2-1.6-3.6-3.6-3.6s-3.6,1.6-3.6,3.6
						c0,1.5,1,2.8,2.3,3.3v10.9L473.2,189.9z M474.5,211c-0.6,0-1-0.5-1-1c0-0.6,0.5-1,1-1c0.6,0,1,0.5,1,1
						C475.5,210.6,475,211,474.5,211z M463,163.2c0.6,0,1,0.5,1,1s-0.5,1-1,1c-0.6,0-1-0.5-1-1S462.5,163.2,463,163.2z"/>
				</g>
				<g>
					<linearGradient id="SVGID_56_" gradientUnits="userSpaceOnUse" x1="218.2276" y1="396.5455" x2="483.453" y2="131.32">
						<stop  offset="0" style="stop-color:#3399FF"/>
						<stop  offset="1" style="stop-color:#33FF99"/>
					</linearGradient>
					<path class="st63" d="M443.4,149.9l-9.2,6.9v33.2l11.4,11.4v30.5c-1.3,0.5-2.3,1.8-2.3,3.3c0,2,1.6,3.6,3.6,3.6
						c2,0,3.6-1.6,3.6-3.6c0-1.5-1-2.8-2.3-3.3v-31.6l-11.4-11.4V158l9.2-6.9v-17.3l-9.2-6.9v-19h-2.5v20.2l9.2,6.9V149.9z
						 M447,236.2c-0.6,0-1-0.5-1-1c0-0.6,0.5-1,1-1c0.6,0,1,0.5,1,1C448,235.8,447.6,236.2,447,236.2z"/>
				</g>
				<g>
					<linearGradient id="SVGID_57_" gradientUnits="userSpaceOnUse" x1="236.4955" y1="414.8134" x2="501.721" y2="149.588">
						<stop  offset="0" style="stop-color:#3399FF"/>
						<stop  offset="1" style="stop-color:#33FF99"/>
					</linearGradient>
					<path class="st64" d="M505.5,139c0-2-1.6-3.6-3.6-3.6c-2,0-3.6,1.6-3.6,3.6c0,1.5,1,2.8,2.3,3.3v14c-1.3,0.5-2.3,1.8-2.3,3.3
						c0,2,1.6,3.6,3.6,3.6c2,0,3.6-1.6,3.6-3.6c0-1.5-1-2.8-2.3-3.3v-14C504.6,141.8,505.5,140.6,505.5,139z M502,138
						c0.6,0,1,0.5,1,1c0,0.6-0.5,1-1,1c-0.6,0-1-0.5-1-1C500.9,138.5,501.4,138,502,138z M502,160.7c-0.6,0-1-0.5-1-1s0.5-1,1-1
						c0.6,0,1,0.5,1,1S502.5,160.7,502,160.7z"/>
				</g>
				<g>
					<linearGradient id="SVGID_58_" gradientUnits="userSpaceOnUse" x1="263.4004" y1="441.7183" x2="528.6258" y2="176.4928">
						<stop  offset="0" style="stop-color:#3399FF"/>
						<stop  offset="1" style="stop-color:#33FF99"/>
					</linearGradient>
					<path class="st65" d="M470.9,237.5c0,2,1.6,3.6,3.6,3.6c2,0,3.6-1.6,3.6-3.6c0-1.5-1-2.8-2.3-3.3v-7.1c1.3-0.5,2.3-1.8,2.3-3.3
						c0-2-1.6-3.6-3.6-3.6c-2,0-3.6,1.6-3.6,3.6c0,1.5,1,2.8,2.3,3.3v7.1C471.9,234.7,470.9,236,470.9,237.5z M474.5,238.5
						c-0.6,0-1-0.5-1-1c0-0.6,0.5-1,1-1c0.6,0,1,0.5,1,1C475.5,238.1,475,238.5,474.5,238.5z M474.5,222.7c0.6,0,1,0.5,1,1
						c0,0.6-0.5,1-1,1c-0.6,0-1-0.5-1-1C473.5,223.2,473.9,222.7,474.5,222.7z"/>
				</g>
				<g>
					<linearGradient id="SVGID_59_" gradientUnits="userSpaceOnUse" x1="208.3956" y1="386.7135" x2="473.6211" y2="121.4881">
						<stop  offset="0" style="stop-color:#3399FF"/>
						<stop  offset="1" style="stop-color:#33FF99"/>
					</linearGradient>
					<path class="st66" d="M413.7,126.3v72.8l11.4,11.4v16.5H416v2.5h11.7v-20.1L416.2,198v-71.7c1.3-0.5,2.3-1.8,2.3-3.3
						c0-2-1.6-3.6-3.6-3.6s-3.6,1.6-3.6,3.6C411.4,124.5,412.3,125.8,413.7,126.3z M415,122c0.6,0,1,0.5,1,1s-0.5,1-1,1s-1-0.5-1-1
						S414.4,122,415,122z"/>
				</g>
				<g>
					<linearGradient id="SVGID_60_" gradientUnits="userSpaceOnUse" x1="213.3613" y1="391.6792" x2="478.5867" y2="126.4537">
						<stop  offset="0" style="stop-color:#3399FF"/>
						<stop  offset="1" style="stop-color:#33FF99"/>
					</linearGradient>
					<path class="st67" d="M484.7,117.2v13.5l11.7-11.7v-11h-2.5v9.9l-6.6,6.6v-7.3c1.3-0.5,2.3-1.8,2.3-3.3c0-2-1.6-3.6-3.6-3.6
						s-3.6,1.6-3.6,3.6C482.4,115.4,483.3,116.7,484.7,117.2z M485.9,112.8c0.6,0,1,0.5,1,1s-0.5,1-1,1c-0.6,0-1-0.5-1-1
						S485.4,112.8,485.9,112.8z"/>
				</g>
				<g>
					<linearGradient id="SVGID_61_" gradientUnits="userSpaceOnUse" x1="294.3625" y1="472.6804" x2="559.588" y2="207.4549">
						<stop  offset="0" style="stop-color:#3399FF"/>
						<stop  offset="1" style="stop-color:#33FF99"/>
					</linearGradient>
					<path class="st68" d="M416.2,385.3v-44.2l11.4-11.4v-20.1H416v2.5h9.2v16.5L413.7,340v45.3c-1.3,0.5-2.3,1.8-2.3,3.3
						c0,2,1.6,3.6,3.6,3.6s3.6-1.6,3.6-3.6C418.5,387.1,417.6,385.8,416.2,385.3z M415,389.6c-0.6,0-1-0.5-1-1c0-0.6,0.5-1,1-1
						s1,0.5,1,1C416,389.2,415.5,389.6,415,389.6z"/>
				</g>
				<g>
					<linearGradient id="SVGID_62_" gradientUnits="userSpaceOnUse" x1="225.6693" y1="403.9872" x2="490.8948" y2="138.7618">
						<stop  offset="0" style="stop-color:#3399FF"/>
						<stop  offset="1" style="stop-color:#33FF99"/>
					</linearGradient>
					<path class="st69" d="M269.7,428.8v-6.3l-9.2-11.4v-5.4v-9.8l11.4-16v-30.7l-11.4-11.4v-44H304v-2.5h-46v47.6l11.4,11.4v28.8
						l-11.4,16v10.6v6.3v30.6c-1.3,0.5-2.3,1.8-2.3,3.3c0,2,1.6,3.6,3.6,3.6s3.6-1.6,3.6-3.6c0-1.5-1-2.8-2.3-3.3v-27.4l6.6,8.3v5.4
						c-1.3,0.5-2.3,1.8-2.3,3.3c0,2,1.6,3.6,3.6,3.6s3.6-1.6,3.6-3.6C272,430.6,271,429.3,269.7,428.8z M259.3,446.9
						c-0.6,0-1-0.5-1-1c0-0.6,0.5-1,1-1c0.6,0,1,0.5,1,1C260.3,446.4,259.8,446.9,259.3,446.9z M268.4,433.1c-0.6,0-1-0.5-1-1
						s0.5-1,1-1c0.6,0,1,0.5,1,1S269,433.1,268.4,433.1z"/>
				</g>
				<g>
					<linearGradient id="SVGID_63_" gradientUnits="userSpaceOnUse" x1="226.1916" y1="404.5095" x2="491.417" y2="139.284">
						<stop  offset="0" style="stop-color:#3399FF"/>
						<stop  offset="1" style="stop-color:#33FF99"/>
					</linearGradient>
					<path class="st70" d="M274.3,408.2v-7.7l11.4-16v-33L274.3,340v-32.8c1.3-0.5,2.3-1.8,2.3-3.3c0-2-1.6-3.6-3.6-3.6
						c-2,0-3.6,1.6-3.6,3.6c0,1.5,1,2.8,2.3,3.3v33.8l11.4,11.4v31.1l-11.4,16v8.5c-1.3,0.5-2.3,1.8-2.3,3.3c0,2,1.6,3.6,3.6,3.6
						c2,0,3.6-1.6,3.6-3.6C276.6,410,275.6,408.7,274.3,408.2z M273,302.9c0.6,0,1,0.5,1,1s-0.5,1-1,1c-0.6,0-1-0.5-1-1
						S272.4,302.9,273,302.9z M273,412.5c-0.6,0-1-0.5-1-1c0-0.6,0.5-1,1-1c0.6,0,1,0.5,1,1C274,412.1,273.5,412.5,273,412.5z"/>
				</g>
				<g>
					<linearGradient id="SVGID_64_" gradientUnits="userSpaceOnUse" x1="313.2029" y1="491.5208" x2="578.4283" y2="226.2953">
						<stop  offset="0" style="stop-color:#3399FF"/>
						<stop  offset="1" style="stop-color:#33FF99"/>
					</linearGradient>
					<path class="st71" d="M450.6,411.5c0-1.5-1-2.8-2.3-3.3v-8.6l-11.4-13.7v-33.4l11.4-11.4v-33.8c1.3-0.5,2.3-1.8,2.3-3.3
						c0-2-1.6-3.6-3.6-3.6c-2,0-3.6,1.6-3.6,3.6c0,1.5,1,2.8,2.3,3.3V340l-11.4,11.4v35.3l11.4,13.7v7.7c-1.3,0.5-2.3,1.8-2.3,3.3
						c0,2,1.6,3.6,3.6,3.6C449,415.1,450.6,413.5,450.6,411.5z M447,302.9c0.6,0,1,0.5,1,1s-0.5,1-1,1c-0.6,0-1-0.5-1-1
						S446.5,302.9,447,302.9z M447,412.5c-0.6,0-1-0.5-1-1c0-0.6,0.5-1,1-1c0.6,0,1,0.5,1,1C448,412.1,447.6,412.5,447,412.5z"/>
				</g>
				<g>
					<linearGradient id="SVGID_65_" gradientUnits="userSpaceOnUse" x1="315.5429" y1="493.8608" x2="580.7683" y2="228.6353">
						<stop  offset="0" style="stop-color:#3399FF"/>
						<stop  offset="1" style="stop-color:#33FF99"/>
					</linearGradient>
					<path class="st72" d="M462,442.5V412v-6.3v-6.1l-11.4-13.7v-31.1l11.4-11.4v-52.2h-46v2.5h43.5v48.6L448,353.8v33l11.4,13.7
						v5.1v5.4l-9.2,11.4v6.3c-1.3,0.5-2.3,1.8-2.3,3.3c0,2,1.6,3.6,3.6,3.6s3.6-1.6,3.6-3.6c0-1.5-1-2.8-2.3-3.3v-5.4l6.6-8.3v27.4
						c-1.3,0.5-2.3,1.8-2.3,3.3c0,2,1.6,3.6,3.6,3.6s3.6-1.6,3.6-3.6C464.3,444.4,463.4,443.1,462,442.5z M451.6,433.1
						c-0.6,0-1-0.5-1-1s0.5-1,1-1c0.6,0,1,0.5,1,1S452.2,433.1,451.6,433.1z M460.7,446.9c-0.6,0-1-0.5-1-1c0-0.6,0.5-1,1-1
						c0.6,0,1,0.5,1,1C461.8,446.4,461.3,446.9,460.7,446.9z"/>
				</g>
				<g>
					<linearGradient id="SVGID_66_" gradientUnits="userSpaceOnUse" x1="229.0036" y1="407.3215" x2="494.229" y2="142.096">
						<stop  offset="0" style="stop-color:#3399FF"/>
						<stop  offset="1" style="stop-color:#33FF99"/>
					</linearGradient>
					<path class="st73" d="M454.9,114.9v30.4l-0.5,0.4l0.5,0.7v5.8l-9.1,6.6v24.1l13.7,14v48.6H416v2.5h46v-52.2l-13.7-14V160
						l9.1-6.6v-6.9l9.2-6.9v-11.1c1.3-0.5,2.3-1.8,2.3-3.3c0-2-1.6-3.6-3.6-3.6c-2,0-3.6,1.6-3.6,3.6c0,1.5,1,2.8,2.3,3.3v9.8
						l-6.6,5v-28.5c1.3-0.5,2.3-1.8,2.3-3.3c0-2-1.6-3.6-3.6-3.6c-2,0-3.6,1.6-3.6,3.6C452.6,113.1,453.6,114.4,454.9,114.9z
						 M465.3,124.3c0.6,0,1,0.5,1,1s-0.5,1-1,1c-0.6,0-1-0.5-1-1S464.8,124.3,465.3,124.3z M456.2,110.5c0.6,0,1,0.5,1,1s-0.5,1-1,1
						c-0.6,0-1-0.5-1-1S455.6,110.5,456.2,110.5z"/>
				</g>
				<g>
					<linearGradient id="SVGID_67_" gradientUnits="userSpaceOnUse" x1="185.0259" y1="363.3438" x2="450.2513" y2="98.1183">
						<stop  offset="0" style="stop-color:#3399FF"/>
						<stop  offset="1" style="stop-color:#33FF99"/>
					</linearGradient>
					<path class="st74" d="M424.1,140.3c2,0,3.6-1.6,3.6-3.6c0-1.5-1-2.8-2.3-3.3V108h-2.5v25.4c-1.3,0.5-2.3,1.8-2.3,3.3
						C420.6,138.7,422.1,140.3,424.1,140.3z M424.1,137.8c-0.6,0-1-0.5-1-1s0.5-1,1-1c0.6,0,1,0.5,1,1S424.7,137.8,424.1,137.8z"/>
				</g>
				<g>
					<linearGradient id="SVGID_68_" gradientUnits="userSpaceOnUse" x1="152.3464" y1="330.6643" x2="417.5719" y2="65.4389">
						<stop  offset="0" style="stop-color:#3399FF"/>
						<stop  offset="1" style="stop-color:#33FF99"/>
					</linearGradient>
					<polygon class="st75" points="285.5,137.8 285.5,148.8 294.6,155.7 294.6,193.5 283.2,204.9 283.2,238.8 304,238.8 304,236.2 
						285.7,236.2 285.7,206 297.2,194.5 297.2,154.4 288,147.6 288,137.8 					"/>
				</g>
				<g>
					<linearGradient id="SVGID_69_" gradientUnits="userSpaceOnUse" x1="135.1731" y1="313.491" x2="400.3986" y2="48.2656">
						<stop  offset="0" style="stop-color:#3399FF"/>
						<stop  offset="1" style="stop-color:#33FF99"/>
					</linearGradient>
					<polygon class="st76" points="304,266.2 304,263.7 236.8,263.7 217,246.1 217,176.2 228.5,164.8 228.5,133.9 217,122.5 
						217,112.6 214.5,112.6 214.5,123.5 225.9,135 225.9,163.7 214.5,175.1 214.5,247.2 235.9,266.2 					"/>
				</g>
				<g>
					<linearGradient id="SVGID_70_" gradientUnits="userSpaceOnUse" x1="138.6078" y1="316.9257" x2="403.8333" y2="51.7002">
						<stop  offset="0" style="stop-color:#3399FF"/>
						<stop  offset="1" style="stop-color:#33FF99"/>
					</linearGradient>
					<polygon class="st77" points="230.5,242.7 247.3,257.1 304,257.1 304,254.5 248.3,254.5 233,241.5 233,183.1 244.5,171.6 
						244.5,108 241.9,108 241.9,170.6 230.5,182 					"/>
				</g>
				<g>
					<linearGradient id="SVGID_71_" gradientUnits="userSpaceOnUse" x1="130.0211" y1="308.339" x2="395.2466" y2="43.1136">
						<stop  offset="0" style="stop-color:#3399FF"/>
						<stop  offset="1" style="stop-color:#33FF99"/>
					</linearGradient>
					<path class="st78" d="M258.2,178.5v-10.9c1.3-0.5,2.3-1.8,2.3-3.3c0-2-1.6-3.6-3.6-3.6s-3.6,1.6-3.6,3.6c0,1.5,1,2.8,2.3,3.3
						v9.9l-11.4,11.4v17.8c-1.3,0.5-2.3,1.8-2.3,3.3c0,2,1.6,3.6,3.6,3.6s3.6-1.6,3.6-3.6c0-1.5-1-2.8-2.3-3.3v-16.8L258.2,178.5z
						 M257,163.2c0.6,0,1,0.5,1,1s-0.5,1-1,1c-0.6,0-1-0.5-1-1S256.4,163.2,257,163.2z M245.5,211c-0.6,0-1-0.5-1-1c0-0.6,0.5-1,1-1
						s1,0.5,1,1C246.5,210.6,246.1,211,245.5,211z"/>
				</g>
				<g>
					<linearGradient id="SVGID_72_" gradientUnits="userSpaceOnUse" x1="136.9407" y1="315.2586" x2="402.1661" y2="50.0331">
						<stop  offset="0" style="stop-color:#3399FF"/>
						<stop  offset="1" style="stop-color:#33FF99"/>
					</linearGradient>
					<path class="st79" d="M283.2,188.9l-11.4,11.4v31.6c-1.3,0.5-2.3,1.8-2.3,3.3c0,2,1.6,3.6,3.6,3.6c2,0,3.6-1.6,3.6-3.6
						c0-1.5-1-2.8-2.3-3.3v-30.5l11.4-11.4v-33.2l-9.2-6.9v-14.8l9.2-6.9V108h-2.5v19l-9.2,6.9v17.3l9.2,6.9V188.9z M273,236.2
						c-0.6,0-1-0.5-1-1c0-0.6,0.5-1,1-1c0.6,0,1,0.5,1,1C274,235.8,273.5,236.2,273,236.2z"/>
				</g>
				<g>
					<linearGradient id="SVGID_73_" gradientUnits="userSpaceOnUse" x1="94.5297" y1="272.8476" x2="359.7551" y2="7.6221">
						<stop  offset="0" style="stop-color:#3399FF"/>
						<stop  offset="1" style="stop-color:#33FF99"/>
					</linearGradient>
					<path class="st80" d="M214.5,159.6c0,2,1.6,3.6,3.6,3.6c2,0,3.6-1.6,3.6-3.6c0-1.5-1-2.8-2.3-3.3v-14c1.3-0.5,2.3-1.8,2.3-3.3
						c0-2-1.6-3.6-3.6-3.6c-2,0-3.6,1.6-3.6,3.6c0,1.5,1,2.8,2.3,3.3v14C215.4,156.8,214.5,158.1,214.5,159.6z M218,160.7
						c-0.6,0-1-0.5-1-1s0.5-1,1-1s1,0.5,1,1S218.6,160.7,218,160.7z M218,138c0.6,0,1,0.5,1,1c0,0.6-0.5,1-1,1s-1-0.5-1-1
						C217,138.5,217.5,138,218,138z"/>
				</g>
				<g>
					<linearGradient id="SVGID_74_" gradientUnits="userSpaceOnUse" x1="148.9118" y1="327.2296" x2="414.1372" y2="62.0042">
						<stop  offset="0" style="stop-color:#3399FF"/>
						<stop  offset="1" style="stop-color:#33FF99"/>
					</linearGradient>
					<path class="st81" d="M249.1,223.8c0-2-1.6-3.6-3.6-3.6s-3.6,1.6-3.6,3.6c0,1.5,1,2.8,2.3,3.3v7.1c-1.3,0.5-2.3,1.8-2.3,3.3
						c0,2,1.6,3.6,3.6,3.6s3.6-1.6,3.6-3.6c0-1.5-1-2.8-2.3-3.3v-7.1C248.1,226.6,249.1,225.3,249.1,223.8z M245.5,222.7
						c0.6,0,1,0.5,1,1c0,0.6-0.5,1-1,1s-1-0.5-1-1C244.5,223.2,245,222.7,245.5,222.7z M245.5,238.5c-0.6,0-1-0.5-1-1
						c0-0.6,0.5-1,1-1s1,0.5,1,1C246.5,238.1,246.1,238.5,245.5,238.5z"/>
				</g>
				<g>
					<linearGradient id="SVGID_75_" gradientUnits="userSpaceOnUse" x1="150.0064" y1="328.3243" x2="415.2319" y2="63.0989">
						<stop  offset="0" style="stop-color:#3399FF"/>
						<stop  offset="1" style="stop-color:#33FF99"/>
					</linearGradient>
					<path class="st82" d="M305,119.4c-2,0-3.6,1.6-3.6,3.6c0,1.5,1,2.8,2.3,3.3V198l-11.4,11.4v20.1H304v-2.5h-9.2v-16.5l11.4-11.4
						v-72.8c1.3-0.5,2.3-1.8,2.3-3.3C308.6,121,307,119.4,305,119.4z M305,122c0.6,0,1,0.5,1,1s-0.5,1-1,1s-1-0.5-1-1
						S304.5,122,305,122z"/>
				</g>
				<g>
					<linearGradient id="SVGID_76_" gradientUnits="userSpaceOnUse" x1="85.2478" y1="263.5657" x2="350.4733" y2="-1.6597">
						<stop  offset="0" style="stop-color:#3399FF"/>
						<stop  offset="1" style="stop-color:#33FF99"/>
					</linearGradient>
					<path class="st83" d="M235.3,117.2c1.3-0.5,2.3-1.8,2.3-3.3c0-2-1.6-3.6-3.6-3.6c-2,0-3.6,1.6-3.6,3.6c0,1.5,1,2.8,2.3,3.3v7.3
						l-6.6-6.6V108h-2.5v11l11.7,11.7V117.2z M234.1,112.8c0.6,0,1,0.5,1,1s-0.5,1-1,1s-1-0.5-1-1S233.5,112.8,234.1,112.8z"/>
				</g>
				<g>
					<linearGradient id="SVGID_77_" gradientUnits="userSpaceOnUse" x1="141.4198" y1="319.7377" x2="406.6452" y2="54.5122">
						<stop  offset="0" style="stop-color:#3399FF"/>
						<stop  offset="1" style="stop-color:#33FF99"/>
					</linearGradient>
					<path class="st84" d="M253.4,128.6v11.1l9.2,6.9v6.9l9.1,6.6v21.7l-13.7,14v52.2h46v-2.5h-43.5v-48.6l13.7-14v-24.1l-9.1-6.6
						v-5.8l0.5-0.7l-0.5-0.4v-30.4c1.3-0.5,2.3-1.8,2.3-3.3c0-2-1.6-3.6-3.6-3.6c-2,0-3.6,1.6-3.6,3.6c0,1.5,1,2.8,2.3,3.3v28.5
						l-6.6-5v-9.8c1.3-0.5,2.3-1.8,2.3-3.3c0-2-1.6-3.6-3.6-3.6c-2,0-3.6,1.6-3.6,3.6C251.1,126.8,252.1,128.1,253.4,128.6z
						 M263.8,110.5c0.6,0,1,0.5,1,1s-0.5,1-1,1c-0.6,0-1-0.5-1-1S263.3,110.5,263.8,110.5z M254.7,124.3c0.6,0,1,0.5,1,1s-0.5,1-1,1
						s-1-0.5-1-1S254.1,124.3,254.7,124.3z"/>
				</g>
				<g>
					<linearGradient id="SVGID_78_" gradientUnits="userSpaceOnUse" x1="120.9123" y1="299.2302" x2="386.1377" y2="34.0047">
						<stop  offset="0" style="stop-color:#3399FF"/>
						<stop  offset="1" style="stop-color:#33FF99"/>
					</linearGradient>
					<path class="st85" d="M295.9,140.3c2,0,3.6-1.6,3.6-3.6c0-1.5-1-2.8-2.3-3.3V108h-2.5v25.4c-1.3,0.5-2.3,1.8-2.3,3.3
						C292.3,138.7,293.9,140.3,295.9,140.3z M295.9,137.8c-0.6,0-1-0.5-1-1s0.5-1,1-1c0.6,0,1,0.5,1,1S296.4,137.8,295.9,137.8z"/>
				</g>
			</g>
		</g>
	</g>
</g>
</svg>
