<?xml version="1.0" encoding="utf-8"?>
<!-- Generator: Adobe Illustrator 22.1.0, SVG Export Plug-In . SVG Version: 6.00 Build 0)  -->
<svg version="1.1" id="Layer_1" xmlns="http://www.w3.org/2000/svg" xmlns:xlink="http://www.w3.org/1999/xlink" x="0px" y="0px"
	 viewBox="0 0 255 28" style="enable-background:new 0 0 255 28;" xml:space="preserve">
<style type="text/css">
	.st0{fill:#FFFFFF;}
</style>
<title>new logo white</title>
<desc>Created with Sketch.</desc>
<path class="st0" d="M13.3,27.9c-6.7,0-11.8-5.1-11.8-11.8V16c0-6.8,5.2-11.9,12-11.9c3.8,0,6.6,1.1,9.1,3.6l0.2,0.2l-3.5,4
	l-0.2-0.2c-1.9-1.7-3.6-2.5-5.6-2.5c-3.6,0-6.3,2.9-6.3,6.8V16c0,3.9,2.7,6.9,6.3,6.9c2.5,0,4-0.9,5.8-2.6l0.2-0.2l3.5,3.5l-0.2,0.2
	C20.1,26.7,17.2,27.9,13.3,27.9z"/>
<path class="st0" d="M42,27.9c-5.4,0-9.6-4-9.6-9.2v-0.1c0-5.2,4.2-9.2,9.6-9.2c5.4,0,9.6,4,9.6,9.2v0.1
	C51.7,23.9,47.4,27.9,42,27.9z M42,14.1c-2,0-4.3,1.4-4.3,4.5v0.1c0,2.6,1.9,4.5,4.3,4.5c2,0,4.3-1.4,4.3-4.5v-0.1
	C46.4,16.1,44.5,14.1,42,14.1z"/>
<path class="st0" d="M59.7,27.9c-3.8,0-6.1-2.5-6.1-6.7V9.8H59v9.9c0,2.1,1,3.3,2.7,3.3c1.8,0,2.8-1.2,2.8-3.3V9.8h5.4v17.8h-5.4v-2
	l-0.3,0.3C62.9,27.2,61.4,27.9,59.7,27.9z"/>
<path class="st0" d="M80.2,27.9c-4,0-8.1-3.1-8.1-9.2v-0.1c0-4.6,2.8-9.2,8.1-9.2c1.9,0,3.5,0.6,4.8,1.9l0.3,0.3V3.5h5.4v24h-5.4v-2
	L85,25.8C83.7,27.2,82.1,27.9,80.2,27.9z M81.5,14.1c-2.3,0-4,1.9-4,4.5v0.1c0,2.6,1.7,4.5,4,4.5c2.3,0,4-1.9,4-4.5v-0.1
	C85.4,16,83.8,14.1,81.5,14.1z"/>
<path class="st0" d="M105.4,27.9c-6.7,0-11.8-5.1-11.8-11.8V16c0-6.8,5.2-11.9,12-11.9c3.8,0,6.6,1.1,9.1,3.6l0.1,0.1l-3.8,3.7
	c-1.8-1.6-3.5-2.4-5.5-2.4c-3.6,0-6.3,2.9-6.3,6.8V16c0,3.9,2.7,6.9,6.3,6.9c2.4,0,3.9-0.9,5.7-2.5l3.8,3.3l-0.1,0.2
	C112.1,26.7,109.3,27.9,105.4,27.9z"/>
<path class="st0" d="M128,27.5v-9.9c0-2.1-1-3.3-2.7-3.3c-1.8,0-2.8,1.2-2.8,3.3v9.9h-5.4l0-21.3l5.3-5.3l0,10.8l0.3-0.3
	c1.3-1.3,2.8-2,4.5-2c3.8,0,6.1,2.5,6.1,6.7v11.4H128z"/>
<path class="st0" d="M144.5,27.9c-5.4,0-9.3-3.9-9.3-9.2v-0.1c0-5.3,3.8-9.2,8.8-9.2c4,0,8.7,2.5,8.7,9.6v0.1c0,0.4,0,0.7,0,1l0,0.5
	h-12l0.1,0.3c0.6,1.7,1.9,2.7,3.9,2.7c1.6,0,2.7-0.5,4-1.7l0.2-0.1l3.1,2.8l-0.1,0.2C150,26.8,147.5,27.9,144.5,27.9z M144,13.9
	c-1.7,0-2.9,1.1-3.4,3l-0.1,0.2h6.8l0-0.2C146.9,14.9,145.7,13.9,144,13.9z"/>
<path class="st0" d="M163.6,27.9c-5.2,0-9.2-4-9.2-9.2v-0.1c0-5.3,4-9.2,9.3-9.2c3.1,0,5.2,0.9,7.1,3l0.1,0.2l-3.3,3.6l-0.2-0.2
	c-1-1.1-2.1-1.8-3.8-1.8c-2.2,0-4,2-4,4.5v0.1c0,2.7,1.7,4.5,4.2,4.5c1.6,0,2.7-0.7,3.8-1.8l0.2-0.2l3.2,3.2l-0.1,0.2
	C169.3,26.4,167.4,27.9,163.6,27.9z"/>
<polygon class="st0" points="184,27.5 179.6,20.6 178.1,22.1 178.1,27.5 172.8,27.5 172.8,3.5 178.1,3.5 178.1,15.7 183.6,9.8 
	190.1,9.8 183.2,16.8 190.2,27.5 "/>
<path class="st0" d="M192.1,27.5V9.8h5.4v2.6l0.3-0.5c1.1-1.6,2.6-2.4,4.6-2.4c0.1,0,0.2,0,0.4,0l0.2,0V15h-0.5
	c-1.6,0-2.9,0.5-3.7,1.5c-0.8,1-1.3,2.5-1.3,4.4v6.6H192.1z"/>
<rect x="25" y="3.5" class="st0" width="5.4" height="24"/>
</svg>
